<svg xmlns:xlink="http://www.w3.org/1999/xlink" xmlns="http://www.w3.org/2000/svg" width="47.002" height="10" viewBox="0 0 47.002 10">
  <g id="ideasoft_logo" transform="translate(-166.1 -404.801)">
    <path id="Path_1182" data-name="Path 1182" d="M185.2,405.036a.569.569,0,0,0-.438-.136.47.47,0,0,0-.378.136.611.611,0,0,0-.166.408l-.03,3.157a2.432,2.432,0,0,0-.333-.347,2.932,2.932,0,0,0-.65-.408,4.242,4.242,0,0,0-.741-.242,3.337,3.337,0,0,0-.771-.076,3.936,3.936,0,0,0-1.406.257,3.62,3.62,0,0,0-1.149.725,3.341,3.341,0,0,0-.771,1.148,4.287,4.287,0,0,0,0,3.006,3.367,3.367,0,0,0,1.92,1.9,3.634,3.634,0,0,0,1.406.257,3.358,3.358,0,0,0,.771-.091,3.9,3.9,0,0,0,.741-.257,2.673,2.673,0,0,0,.65-.423,1.9,1.9,0,0,0,.333-.363v.468a.749.749,0,0,0,.166.483.506.506,0,0,0,.408.166.558.558,0,0,0,.408-.166.813.813,0,0,0,.166-.483l.03-8.731A.694.694,0,0,0,185.2,405.036Zm-1.224,7.221a2.347,2.347,0,0,1-.544.8,2.277,2.277,0,0,1-.8.483,2.959,2.959,0,0,1-.967.166,2.563,2.563,0,0,1-.967-.181,2.343,2.343,0,0,1-1.3-1.329,2.957,2.957,0,0,1,0-2.039,2.363,2.363,0,0,1,.514-.785,2.489,2.489,0,0,1,.786-.5,2.563,2.563,0,0,1,.967-.181,2.7,2.7,0,0,1,.892.151,2.446,2.446,0,0,1,.816.468,2.163,2.163,0,0,1,.574.786,2.864,2.864,0,0,1,.03,2.16Z" transform="translate(-10.186 -0.085)" fill="#a2d45e"/>
    <path id="Path_1183" data-name="Path 1183" d="M236.663,426.236a.524.524,0,0,0,.166-.393,4.256,4.256,0,0,0-.257-1.5,3.149,3.149,0,0,0-.711-1.149,3.3,3.3,0,0,0-1.1-.741,3.793,3.793,0,0,0-1.391-.257,3.935,3.935,0,0,0-1.406.257,3.393,3.393,0,0,0-1.134.726,3.533,3.533,0,0,0-.756,1.149,4.293,4.293,0,0,0,0,3.008,3.445,3.445,0,0,0,.756,1.164,3.21,3.21,0,0,0,1.134.741,3.58,3.58,0,0,0,1.406.257,3.63,3.63,0,0,0,1.663-.378,3.267,3.267,0,0,0,1.24-1.073.572.572,0,0,0,.091-.438.566.566,0,0,0-.257-.363.459.459,0,0,0-.438-.06.726.726,0,0,0-.348.257,3.294,3.294,0,0,1-.8.665,2.254,2.254,0,0,1-1.134.242,2.376,2.376,0,0,1-.877-.151,2.22,2.22,0,0,1-.71-.423,2.338,2.338,0,0,1-.529-.665,2.572,2.572,0,0,1-.257-.771H236.3A.346.346,0,0,0,236.663,426.236Zm-5.654-.937a2.316,2.316,0,0,1,.771-1.406,2.42,2.42,0,0,1,1.587-.559,2.17,2.17,0,0,1,1.527.544,2.443,2.443,0,0,1,.741,1.406h-4.626Z" transform="translate(-54.117 -14.777)" fill="#a2d45e"/>
    <path id="Path_1184" data-name="Path 1184" d="M287.575,422.366h0a.505.505,0,0,0-.408-.166.558.558,0,0,0-.408.166.612.612,0,0,0-.166.408v.514a2.429,2.429,0,0,0-.333-.348,2.93,2.93,0,0,0-.65-.408,4.244,4.244,0,0,0-.741-.242,3.336,3.336,0,0,0-.771-.076,3.934,3.934,0,0,0-1.406.257,3.618,3.618,0,0,0-1.149.726,3.343,3.343,0,0,0-.771,1.149,4.293,4.293,0,0,0,0,3.008,3.368,3.368,0,0,0,1.92,1.9,3.63,3.63,0,0,0,1.406.257,3.355,3.355,0,0,0,.771-.091,3.894,3.894,0,0,0,.741-.257,2.674,2.674,0,0,0,.65-.423,1.9,1.9,0,0,0,.333-.363v.469a.75.75,0,0,0,.166.484.506.506,0,0,0,.408.166.558.558,0,0,0,.408-.166.814.814,0,0,0,.166-.484v-6.077A.612.612,0,0,0,287.575,422.366Zm-1.179,4.58a2.349,2.349,0,0,1-.544.8,2.276,2.276,0,0,1-.8.484,2.956,2.956,0,0,1-.967.166,2.563,2.563,0,0,1-.967-.181,2.344,2.344,0,0,1-1.3-1.33,2.961,2.961,0,0,1,0-2.041,2.366,2.366,0,0,1,.514-.786,2.489,2.489,0,0,1,.786-.5,2.562,2.562,0,0,1,.967-.181,2.7,2.7,0,0,1,.892.151,2.447,2.447,0,0,1,.816.469,2.163,2.163,0,0,1,.574.786,2.868,2.868,0,0,1,.03,2.162Z" transform="translate(-97.191 -14.777)" fill="#a2d45e"/>
    <path id="Path_1185" data-name="Path 1185" d="M166.674,422.2a.558.558,0,0,0-.408.166.612.612,0,0,0-.166.408v6.183a.558.558,0,0,0,.166.408.505.505,0,0,0,.408.166.558.558,0,0,0,.408-.166.612.612,0,0,0,.166-.408v-6.183a.558.558,0,0,0-.166-.408A.505.505,0,0,0,166.674,422.2Z" transform="translate(0 -14.777)" fill="#a2d45e"/>
    <path id="Path_1186" data-name="Path 1186" d="M166.759,406.723a.558.558,0,0,0,.559-.559v-.6a.559.559,0,0,0-1.119,0v.6A.558.558,0,0,0,166.759,406.723Z" transform="translate(-0.085 -0.17)" fill="#a2d45e"/>
    <path id="Path_1187" data-name="Path 1187" d="M336.692,425.359l-.937-.227a2.172,2.172,0,0,1-.378-.121.925.925,0,0,1-.333-.2.935.935,0,0,1-.227-.3.818.818,0,0,1-.03-.438.8.8,0,0,1,.378-.544,1.437,1.437,0,0,1,.816-.227,1.34,1.34,0,0,1,.65.136,1.086,1.086,0,0,1,.393.393,1.756,1.756,0,0,0,.242.317.424.424,0,0,0,.454.06.534.534,0,0,0,.348-.272.5.5,0,0,0,.03-.438,1.8,1.8,0,0,0-.847-1,2.7,2.7,0,0,0-1.255-.3,2.987,2.987,0,0,0-.831.121,2.147,2.147,0,0,0-.7.348,2.262,2.262,0,0,0-.529.544,1.93,1.93,0,0,0-.272.71,2.282,2.282,0,0,0,.076,1.043,1.763,1.763,0,0,0,.438.68,2.053,2.053,0,0,0,.62.393,4.208,4.208,0,0,0,.665.212l.952.227a1.175,1.175,0,0,1,.711.393.944.944,0,0,1,.2.574.881.881,0,0,1-.363.726,1.679,1.679,0,0,1-1.013.287,1.61,1.61,0,0,1-1-.257,1.306,1.306,0,0,1-.438-.574.792.792,0,0,0-.242-.333.46.46,0,0,0-.423-.076.53.53,0,0,0-.348.242.548.548,0,0,0-.045.438,2.429,2.429,0,0,0,.363.71,2.569,2.569,0,0,0,.559.514,2.684,2.684,0,0,0,.7.333,2.572,2.572,0,0,0,.771.121,3.158,3.158,0,0,0,1.013-.151,2.873,2.873,0,0,0,.831-.423,1.966,1.966,0,0,0,.559-.665,1.808,1.808,0,0,0,.2-.862,2.192,2.192,0,0,0-.393-1.285A1.954,1.954,0,0,0,336.692,425.359Z" transform="translate(-142.153 -14.777)" fill="#0075c9"/>
    <path id="Path_1188" data-name="Path 1188" d="M378.23,424.431a3.688,3.688,0,0,0-.786-1.149,3.438,3.438,0,0,0-1.164-.726,4.057,4.057,0,0,0-2.842,0,3.69,3.69,0,0,0-1.164.726,3.61,3.61,0,0,0-.786,1.149,3.744,3.744,0,0,0-.287,1.512,4.1,4.1,0,0,0,.287,1.527,3.76,3.76,0,0,0,.786,1.164,3.477,3.477,0,0,0,1.164.741,3.708,3.708,0,0,0,1.421.257,4.017,4.017,0,0,0,1.421-.257,3.729,3.729,0,0,0,1.164-.741,3.515,3.515,0,0,0,.786-1.164,3.819,3.819,0,0,0,.287-1.527A3.505,3.505,0,0,0,378.23,424.431Zm-1.043,2.555a2.362,2.362,0,0,1-1.361,1.315,2.641,2.641,0,0,1-.983.181,2.7,2.7,0,0,1-.983-.181,2.867,2.867,0,0,1-.816-.514,2.348,2.348,0,0,1-.544-.8,2.906,2.906,0,0,1,0-2.1,2.283,2.283,0,0,1,.544-.786,2.467,2.467,0,0,1,.816-.5,2.64,2.64,0,0,1,.983-.181,2.7,2.7,0,0,1,.983.181,2.819,2.819,0,0,1,.816.5,2.284,2.284,0,0,1,.544.786,2.907,2.907,0,0,1,0,2.1Z" transform="translate(-174.247 -14.862)" fill="#0075c9"/>
    <path id="Path_1189" data-name="Path 1189" d="M455.64,407.565h0a.5.5,0,0,0-.378-.151h-.983v-2.039a.557.557,0,0,0-.166-.408.506.506,0,0,0-.408-.166.518.518,0,0,0-.408.181.611.611,0,0,0-.166.408v2.039h-.786a.5.5,0,0,0-.378.151.512.512,0,0,0,0,.755.5.5,0,0,0,.378.151h.786v5.695a.558.558,0,0,0,.166.408.506.506,0,0,0,.408.166.559.559,0,0,0,.408-.166.612.612,0,0,0,.166-.408v-5.695h.983a.5.5,0,0,0,.378-.151.514.514,0,0,0,.166-.378A.586.586,0,0,0,455.64,407.565Z" transform="translate(-242.706 0)" fill="#0075c9"/>
    <path id="Path_1190" data-name="Path 1190" d="M423.275,406.637a1.316,1.316,0,0,1,.378-.483,1.257,1.257,0,0,1,.68-.166h.333a.513.513,0,0,0,.393-.151.523.523,0,0,0,.166-.393.547.547,0,0,0-.151-.393.535.535,0,0,0-.393-.151h-.333a2.526,2.526,0,0,0-1.134.227,1.892,1.892,0,0,0-.741.634,2.93,2.93,0,0,0-.393,1,3.158,3.158,0,0,0-.106.77h-.847a.553.553,0,0,0-.378.136.491.491,0,0,0-.151.393.512.512,0,0,0,.151.393.553.553,0,0,0,.378.136h.847v5.695a.491.491,0,0,0,.166.378.55.55,0,0,0,.816,0,.541.541,0,0,0,.166-.378v-5.725h1.164a.553.553,0,0,0,.378-.136.491.491,0,0,0,.151-.393.512.512,0,0,0-.151-.393.553.553,0,0,0-.378-.136h-1.164a2.26,2.26,0,0,1,.03-.3A.9.9,0,0,1,423.275,406.637Z" transform="translate(-216.222 -0.085)" fill="#0075c9"/>
  </g>
</svg>